<svg xmlns="http://www.w3.org/2000/svg" xmlns:xlink="http://www.w3.org/1999/xlink" id="Layer_1" x="0" y="0" version="1.1" viewBox="0 0 512 512" xml:space="preserve" style="enable-background:new 0 0 512 512"><path style="fill:#4173cd" d="M503.172,423.724H8.828c-4.875,0-8.828-3.953-8.828-8.828V97.104c0-4.875,3.953-8.828,8.828-8.828	h494.345c4.875,0,8.828,3.953,8.828,8.828v317.792C512,419.772,508.047,423.724,503.172,423.724z"/><g><rect style="fill:#ffe15a" width="511.999" height="17.655" y="317.793"/><rect style="fill:#ffe15a" width="511.999" height="17.655" y="353.103"/></g><polygon style="fill:#ff4b55" points="65.232 175.942 32.384 164.725 65.232 153.509 76.449 120.665 87.665 153.509 120.513 164.725 87.665 175.942 76.449 208.787"/><path style="fill:#f5f5f5" d="M76.449,126.567l9.714,28.445l28.445,9.714l-28.445,9.714l-9.714,28.445l-9.714-28.445l-28.445-9.714	l28.445-9.714L76.449,126.567 M76.449,114.759l-3.612,10.574l-9.108,26.673l-26.672,9.108l-10.574,3.612l10.574,3.61l26.672,9.108	l9.108,26.672l3.612,10.574l3.612-10.574l9.108-26.672l26.672-9.108l10.574-3.61l-10.574-3.61l-26.672-9.108l-9.108-26.672	L76.449,114.759L76.449,114.759z"/></svg>