<svg xmlns="http://www.w3.org/2000/svg" xmlns:xlink="http://www.w3.org/1999/xlink" id="Layer_1" x="0" y="0" version="1.1" viewBox="0 0 511.999 511.999" xml:space="preserve" style="enable-background:new 0 0 511.999 511.999"><path style="fill:#f5f5f5" d="M211.862,423.723H8.828c-4.875,0-8.828-3.953-8.828-8.828V97.103c0-4.875,3.953-8.828,8.828-8.828	h203.034V423.723z"/><path style="fill:#ff4b55" d="M141.241,88.276l70.621,20.965l-70.621,20.965l70.621,20.965l-70.621,20.965l70.621,20.965	l-70.621,20.965l70.621,20.965l-70.621,20.965l70.621,20.965l-70.621,20.965l70.621,20.965l-70.621,20.965l70.621,20.965	l-70.621,20.965l70.621,20.965l-70.621,20.965h361.93c4.875,0,8.828-3.953,8.828-8.828V97.103c0-4.875-3.953-8.828-8.828-8.828	H141.241z"/></svg>