<svg xmlns="http://www.w3.org/2000/svg" xmlns:xlink="http://www.w3.org/1999/xlink" id="Layer_1" x="0" y="0" version="1.1" viewBox="0 0 512 512" xml:space="preserve" style="enable-background:new 0 0 512 512"><g><path style="fill:#82afff" d="M512,200.092H0V97.103c0-4.875,3.953-8.828,8.828-8.828h494.345c4.875,0,8.828,3.953,8.828,8.828 V200.092z"/><path style="fill:#82afff" d="M503.172,423.724H8.828c-4.875,0-8.828-3.953-8.828-8.828V311.908h512v102.988 C512,419.772,508.047,423.724,503.172,423.724z"/></g><rect style="fill:#ffe15a" width="512" height="111.812" y="200.088"/><path style="fill:#464655" d="M3.256,421.59l202.841-161.015c2.946-2.338,2.946-6.812,0-9.151L3.256,90.41	C1.311,92.029,0,94.375,0,97.103v317.793C0,417.625,1.311,419.971,3.256,421.59z"/></svg>