<svg xmlns="http://www.w3.org/2000/svg" xmlns:xlink="http://www.w3.org/1999/xlink" id="Layer_1" x="0" y="0" version="1.1" viewBox="0 0 512 512" xml:space="preserve" style="enable-background:new 0 0 512 512"><path style="fill:#ffe15a" d="M503.172,423.724H8.828c-4.875,0-8.828-3.953-8.828-8.828v-75.034h512v75.034	C512,419.772,508.047,423.724,503.172,423.724z"/><rect style="fill:#73af00" width="511.999" height="83.862" y="256"/><rect style="fill:#f5f5f5" width="511.999" height="83.862" y="172.138"/><path style="fill:#41479b" d="M512,172.138H0V97.104c0-4.875,3.953-8.828,8.828-8.828h494.345c4.875,0,8.828,3.953,8.828,8.828	V172.138z"/><rect style="fill:#ff4b55" width="83.862" height="335.448" x="214.068" y="88.276"/><path style="fill:#ffe15a" d="M76.5,99.574l7.366,22.087l23.282,0.181c1.804,0.014,2.551,2.316,1.1,3.388L89.518,139.06	l7.022,22.198c0.544,1.719-1.414,3.143-2.881,2.093l-18.941-13.538l-18.941,13.538c-1.468,1.049-3.425-0.374-2.881-2.093	l7.022-22.198L41.191,125.23c-1.451-1.071-0.703-3.373,1.1-3.388l23.282-0.181l7.366-22.087	C73.509,97.863,75.929,97.863,76.5,99.574z"/></svg>