<svg xmlns="http://www.w3.org/2000/svg" xmlns:xlink="http://www.w3.org/1999/xlink" id="Layer_1" x="0" y="0" version="1.1" viewBox="0 0 512 512" xml:space="preserve" style="enable-background:new 0 0 512 512"><path style="fill:#ff4b55" d="M503.172,423.724H8.828c-4.875,0-8.828-3.953-8.828-8.828V97.103c0-4.875,3.953-8.828,8.828-8.828	h494.345c4.875,0,8.828,3.953,8.828,8.828v317.793C512,419.772,508.047,423.724,503.172,423.724z"/><path style="fill:#f5f5f5" d="M353.103,220.69H291.31v-61.793c0-4.875-3.953-8.828-8.828-8.828h-52.966	c-4.875,0-8.828,3.953-8.828,8.828v61.793h-61.793c-4.875,0-8.828,3.953-8.828,8.828v52.966c0,4.875,3.953,8.828,8.828,8.828h61.793	v61.793c0,4.875,3.953,8.828,8.828,8.828h52.966c4.875,0,8.828-3.953,8.828-8.828V291.31h61.793c4.875,0,8.828-3.953,8.828-8.828	v-52.966C361.931,224.642,357.978,220.69,353.103,220.69z"/></svg>