<svg xmlns="http://www.w3.org/2000/svg" xmlns:xlink="http://www.w3.org/1999/xlink" id="Layer_1" x="0" y="0" version="1.1" viewBox="0 0 512 512" xml:space="preserve" style="enable-background:new 0 0 512 512"><path style="fill:#f5f5f5" d="M503.172,423.724H8.828c-4.875,0-8.828-3.953-8.828-8.828V97.103c0-4.875,3.953-8.828,8.828-8.828	h494.345c4.875,0,8.828,3.953,8.828,8.828v317.793C512,419.772,508.047,423.724,503.172,423.724z"/><polygon style="fill:#41479b" points="512 211.862 229.517 211.862 229.517 88.276 141.241 88.276 141.241 211.862 0 211.862 0 300.138 141.241 300.138 141.241 423.724 229.517 423.724 229.517 300.138 512 300.138"/><polygon style="fill:#ff4b55" points="512 229.517 211.862 229.517 211.862 88.276 158.897 88.276 158.897 229.517 0 229.517 0 282.483 158.897 282.483 158.897 423.724 211.862 423.724 211.862 282.483 512 282.483"/></svg>