<svg xmlns="http://www.w3.org/2000/svg" xmlns:xlink="http://www.w3.org/1999/xlink" id="Layer_1" x="0" y="0" version="1.1" viewBox="0 0 512 512" xml:space="preserve" style="enable-background:new 0 0 512 512"><g><rect style="fill:#f5f5f5" width="512" height="37.272" y="125.55"/><rect style="fill:#f5f5f5" width="512" height="37.272" y="200.088"/><rect style="fill:#f5f5f5" width="512" height="37.272" y="274.637"/></g><rect style="fill:#41479b" width="512" height="37.272" y="311.912"/><rect style="fill:#f5f5f5" width="512" height="37.272" y="349.175"/><g><path style="fill:#41479b" d="M8.828,423.724h494.345c4.875,0,8.828-3.953,8.828-8.828v-28.445H0v28.445 C0,419.772,3.953,423.724,8.828,423.724z"/><path style="fill:#41479b" d="M512,125.548V97.103c0-4.875-3.953-8.828-8.828-8.828H8.828C3.953,88.276,0,92.228,0,97.103v65.717 v37.271v74.545h512v-37.272H176.552v-37.272H512V162.82H176.552v-37.272H512z"/></g><polygon style="fill:#f5f5f5" points="176.552 162.82 106.912 162.82 106.912 88.276 69.64 88.276 69.64 162.82 0 162.82 0 200.092 69.64 200.092 69.64 274.636 106.912 274.636 106.912 200.092 176.552 200.092"/></svg>