<svg xmlns="http://www.w3.org/2000/svg" xmlns:xlink="http://www.w3.org/1999/xlink" id="Layer_1" x="0" y="0" version="1.1" viewBox="0 0 512 512" xml:space="preserve" style="enable-background:new 0 0 512 512"><path style="fill:#41479b" d="M503.172,423.724H8.828c-4.875,0-8.828-3.953-8.828-8.828V97.103c0-4.875,3.953-8.828,8.828-8.828	h494.345c4.875,0,8.828,3.953,8.828,8.828v317.793C512,419.772,508.047,423.724,503.172,423.724z"/><g><rect style="fill:#f5f5f5" width="512" height="17.655" y="132.414"/><rect style="fill:#f5f5f5" width="512" height="17.655" y="361.931"/></g><rect style="fill:#ff4b55" width="512" height="211.862" y="150.069"/><circle style="fill:#f5f5f5" cx="141.241" cy="256" r="70.621"/><path style="fill:#ff4b55" d="M143.122,191.705l14.167,42.478l44.777,0.348c1.905,0.014,2.695,2.445,1.162,3.577l-36.021,26.6	l13.506,42.692c0.575,1.816-1.493,3.318-3.043,2.211l-36.428-26.039l-36.429,26.038c-1.549,1.108-3.617-0.395-3.043-2.211	l13.506-42.692l-36.021-26.6c-1.533-1.131-0.743-3.562,1.162-3.577l44.777-0.348l14.167-42.478	C139.964,189.898,142.519,189.898,143.122,191.705z"/></svg>