<svg xmlns="http://www.w3.org/2000/svg" xmlns:xlink="http://www.w3.org/1999/xlink" id="Layer_1" x="0" y="0" version="1.1" viewBox="0 0 512 512" xml:space="preserve" style="enable-background:new 0 0 512 512"><path style="fill:#82afff" d="M503.172,423.724H8.828c-4.875,0-8.828-3.953-8.828-8.828V97.103c0-4.875,3.953-8.828,8.828-8.828	h494.345c4.875,0,8.828,3.953,8.828,8.828v317.793C512,419.772,508.047,423.724,503.172,423.724z"/><path style="fill:#f5f5f5" d="M253.466,193.442l-14.81,44.409l-46.813,0.363c-2.567,0.02-3.63,3.295-1.566,4.82l37.658,27.809	l-14.121,44.632c-0.775,2.447,2.012,4.471,4.099,2.978L256,291.233l38.086,27.222c2.088,1.492,4.874-0.532,4.099-2.978	l-14.121-44.633l37.658-27.809c2.065-1.525,1.001-4.8-1.566-4.82l-46.813-0.363l-14.81-44.409	C257.721,191.008,254.279,191.008,253.466,193.442z"/></svg>