<svg xmlns="http://www.w3.org/2000/svg" xmlns:xlink="http://www.w3.org/1999/xlink" id="Layer_1" x="0" y="0" version="1.1" viewBox="0 0 512 512" xml:space="preserve" style="enable-background:new 0 0 512 512"><g><path style="fill:#73af00" d="M512,155.366H0V97.103c0-4.875,3.953-8.828,8.828-8.828h494.345c4.875,0,8.828,3.953,8.828,8.828 V155.366z"/><rect style="fill:#73af00" width="512" height="67.09" y="222.455"/></g><rect style="fill:#ffe15a" width="512" height="67.09" y="155.366"/><path style="fill:#73af00" d="M503.172,423.724H8.828c-4.875,0-8.828-3.953-8.828-8.828v-58.262h512v58.262	C512,419.772,508.047,423.724,503.172,423.724z"/><rect style="fill:#ffe15a" width="512" height="67.09" y="289.545"/><path style="fill:#ff4b55" d="M194.207,289.545H8.828c-4.875,0-8.828-3.953-8.828-8.828V97.103c0-4.875,3.953-8.828,8.828-8.828	h185.379c4.875,0,8.828,3.953,8.828,8.828v183.614C203.034,285.592,199.082,289.545,194.207,289.545z"/><path style="fill:#f5f5f5" d="M99.335,135.637l-12.758,38.252l-40.322,0.312c-2.21,0.018-3.127,2.838-1.348,4.151l32.438,23.954	l-12.163,38.446c-0.666,2.108,1.734,3.851,3.531,2.566l32.806-23.448l32.806,23.448c1.799,1.286,4.199-0.458,3.531-2.566	l-12.163-38.445l32.438-23.954c1.779-1.313,0.862-4.135-1.348-4.151l-40.322-0.312L103.7,135.638	C103,133.539,100.034,133.539,99.335,135.637z"/></svg>