<svg xmlns="http://www.w3.org/2000/svg" xmlns:xlink="http://www.w3.org/1999/xlink" id="Layer_1" x="0" y="0" version="1.1" viewBox="0 0 512 512" xml:space="preserve" style="enable-background:new 0 0 512 512"><path style="fill:#ff4b55" d="M503.172,423.724H8.828c-4.875,0-8.828-3.953-8.828-8.828V97.103c0-4.875,3.953-8.828,8.828-8.828	h494.345c4.875,0,8.828,3.953,8.828,8.828v317.793C512,419.772,508.047,423.724,503.172,423.724z"/><g><path style="fill:#f5f5f5" d="M8.828,88.276c-2.387,0-4.535,0.967-6.124,2.506l359.228,332.942h26.483L26.483,88.276H8.828z"/><path style="fill:#f5f5f5" d="M150.069,88.276h-26.483l361.931,335.448h17.655c2.387,0,4.535-0.967,6.124-2.506L150.069,88.276z"/></g><polygon style="fill:#464655" points="26.483 88.276 388.414 423.724 485.517 423.724 123.586 88.276"/></svg>