<svg xmlns="http://www.w3.org/2000/svg" xmlns:xlink="http://www.w3.org/1999/xlink" id="Layer_1" x="0" y="0" version="1.1" viewBox="0 0 512 512" xml:space="preserve" style="enable-background:new 0 0 512 512"><path style="fill:#73af00" d="M0,344.276V97.103c0-4.875,3.953-8.828,8.828-8.828h379.586L0,344.276z"/><path style="fill:#4173cd" d="M512,167.724v247.172c0,4.875-3.953,8.828-8.828,8.828H123.586L512,167.724z"/><path style="fill:#ffe15a" d="M512,172.702V97.103c0-4.875-3.953-8.828-8.828-8.828H383.139L0,339.298v75.598	c0,4.875,3.953,8.828,8.828,8.828h120.033L512,172.702z"/><path style="fill:#464655" d="M512,141.047V97.103c0-4.875-3.953-8.828-8.828-8.828h-71.718L0,370.953v43.944	c0,4.875,3.953,8.828,8.828,8.828h71.718L512,141.047z"/></svg>