<svg xmlns="http://www.w3.org/2000/svg" xmlns:xlink="http://www.w3.org/1999/xlink" id="Capa_1" width="595.279" height="594" x="0" y="0" enable-background="new 0 0 595.279 594" version="1.1" viewBox="0 0 595.279 594" xml:space="preserve"><g><radialGradient id="SVGID_1_" cx="302.012" cy="725.909" r="796.037" gradientUnits="userSpaceOnUse"><stop offset="0" style="stop-color:#3b5998"/><stop offset=".301" style="stop-color:#3b5998"/><stop offset="1" style="stop-color:#5f83cf"/></radialGradient><path fill="url(#SVGID_1_)" d="M593.0471191,471.5966797C593.0471191,538.6650391,538.6994629,593,471.654541,593H123.4123535 C56.3596191,593,2.0002446,538.6650391,2.0002446,471.5966797V123.371582 c0-67.0527344,54.359375-121.3959961,121.4121094-121.3959961H471.654541 c67.0449219,0,121.3925781,54.3432617,121.3925781,121.3959961V471.5966797z"/><path fill="#FFF" d="M456.4377441,164.4428711h54.5234375V78.7436523h-67.7099609l0,0h-14.0009766 c0,0-51.3701172-1.2729492-84.1220703,41.2910156c0,0-22.3037109,21.03125-22.6464844,82.6123047h-0.0166016v64.2739258 h-80.7607422v90.9970703h80.7607422V593h93.1464844V357.9179688h80.1318359l11.1689453-90.9970703h-91.3007813v-64.2739258 h-0.0224609C415.8156738,195.4677734,419.0109863,163.796875,456.4377441,164.4428711z"/></g></svg>