<svg xmlns="http://www.w3.org/2000/svg" xmlns:xlink="http://www.w3.org/1999/xlink" id="Capa_1_1_" width="595.279" height="594" x="0" y="0" enable-background="new 0 0 595.279 594" version="1.1" viewBox="0 0 595.279 594" xml:space="preserve"><g><linearGradient id="SVGID_1_" x1="557.277" x2="37.544" y1="37.519" y2="557.251" gradientUnits="userSpaceOnUse"><stop offset="0" style="stop-color:#e3e3e3"/><stop offset="1" style="stop-color:#000"/></linearGradient><path fill="url(#SVGID_1_)" d="M592.8254395,471.4287109c0,67.0273438-54.3554688,121.3779297-121.3505859,121.3779297H123.3679199 c-67.0351563,0-121.3676758-54.3505859-121.3676758-121.3779297V123.3266602 c0-67.0283203,54.3325195-121.3510742,121.3676758-121.3510742h348.1069336 c66.9951172,0,121.3505859,54.3227539,121.3505859,121.3510742V471.4287109z"/><g><radialGradient id="SVGID_2_" cx="290.176" cy="509.99" r="427.174" gradientUnits="userSpaceOnUse"><stop offset=".168" style="stop-color:#c2181e"/><stop offset=".765" style="stop-color:#de2925"/></radialGradient><path fill="url(#SVGID_2_)" d="M519.4250488,350.9697266c0,55.9648438-19.140625,101.3261719-75.0742188,101.3261719H156.4538574 c-55.9624023,0-81.0693359-45.3613281-81.0693359-101.3261719V243.8144531 c0-55.965332,22.7260742-101.3164063,78.6782227-101.3164063H446.708252 c55.9667969,0,72.7167969,45.3510742,72.7167969,101.3164063V350.9697266z"/><g><polygon fill="#FFF" points="252.908 236.855 373.86 299.987 252.908 363.094"/><polygon fill="#E8E0E0" points="252.908 237.813 358.101 308.183 373.86 299.987 262.252 241.745 252.908 237.688"/></g></g></g></svg>